Coordinates
version=1
nRows=11
nColumns=42
inDegrees=yes

Units are S.I. units (second, meters, Newtons, ...)
If the header above contains a line with 'inDegrees', this indicates whether rotational values are in degrees (yes) or radians (no).

endheader
time	pelvis_tilt	pelvis_list	pelvis_rotation	pelvis_tx	pelvis_ty	pelvis_tz	hip_flexion_r	hip_adduction_r	hip_rotation_r	knee_angle_r	knee_adduction_r	knee_angle_r_beta	ankle_angle_r	subtalar_angle_r	mtp_angle_r	hip_flexion_l	hip_adduction_l	hip_rotation_l	knee_angle_l	knee_adduction_l	knee_angle_l_beta	ankle_angle_l	subtalar_angle_l	mtp_angle_l	lumbar_extension	lumbar_bending	lumbar_rotation	arm_flex_r	arm_add_r	arm_rot_r	elbow_flex_r	pro_sup_r	wrist_flex_r	wrist_dev_r	arm_flex_l	arm_add_l	arm_rot_l	elbow_flex_l	pro_sup_l	wrist_flex_l	wrist_dev_l
      2.10000000	      1.01354978	      7.40270899	     14.89055481	      0.45598688	      0.89288249	      0.41482108	     22.53822184	    -19.38840481	    -22.28282447	     38.81165154	      1.35441780	      0.67739111	     14.29473857	      3.18047114	     -7.62245063	      1.06742524	      1.51217783	     -2.42581879	      3.32445028	      6.48607778	      0.05802260	      9.24162400	     29.53050412	     -7.62245063	    -20.19664108	     -6.86840439	     -5.66160689	    -11.38268488	    -11.90742752	    -19.39234641	     75.17077031	     90.00000001	      0.00000000	      0.00000000	      4.54590070	    -26.28936208	     15.43089797	     88.71700450	     90.00000001	      0.00000000	      0.00000000
      2.11000000	      0.69398129	      7.60404139	     15.24950563	      0.45978324	      0.89227835	      0.41557637	     22.26062046	    -19.29292352	    -22.43428065	     36.34663563	      1.52694010	      0.63436846	     13.65348533	      4.45227116	     -7.61797722	      1.13985907	      1.69224556	     -2.19702711	      3.36170641	      6.43157044	      0.05867285	      9.50916150	     29.74453361	     -7.61797722	    -19.97097091	     -6.98886005	     -5.76991444	    -11.21312110	    -11.77579465	    -19.06000520	     74.52621589	     90.00000001	      0.00000000	      0.00000000	      4.78704988	    -26.44128732	     15.81685763	     88.95144556	     90.00000001	      0.00000000	      0.00000000
      2.12000000	      0.21303572	      7.84884878	     15.59107580	      0.46345272	      0.89144781	      0.41647199	     22.25843403	    -19.27615222	    -22.30999913	     34.42729641	      1.66196351	      0.60086967	     13.08492804	      5.19053413	     -7.61641612	      1.41318675	      2.03255263	     -1.99051163	      3.46953311	      6.22441767	      0.06055478	      9.64296104	     29.82041540	     -7.61641612	    -19.58868299	     -7.21964450	     -5.85649509	    -11.06914980	    -11.60824692	    -18.81884633	     74.09949940	     90.00000001	      0.00000000	      0.00000000	      4.99565177	    -26.56278518	     16.13153822	     89.25669614	     90.00000001	      0.00000000	      0.00000000
      2.13000000	      0.03255868	      7.96961821	     16.03717758	      0.46740010	      0.89122409	      0.41743169	     21.76530759	    -19.08960519	    -22.63622325	     32.75910197	      1.65662531	      0.57175419	     12.61130218	      6.04388497	     -7.61443807	      1.38439718	      2.07594018	     -1.62836408	      3.56104557	      6.15946099	      0.06215197	      9.94957406	     30.02147745	     -7.61443807	    -19.45207089	     -7.23708147	     -5.98703992	    -10.81575974	    -11.49877156	    -18.55987390	     73.38798314	     90.00000001	      0.00000000	      0.00000000	      5.25224324	    -26.61130968	     16.52902947	     89.45485625	     90.00000001	      0.00000000	      0.00000000
      2.14000000	     -0.24682518	      8.21372271	     16.30974348	      0.47124027	      0.89075303	      0.41878310	     21.77653732	    -19.12792863	    -22.77804510	     32.14522283	      1.54933708	      0.56103998	     12.54659140	      6.15721944	     -7.61400041	      1.40859613	      2.21341317	     -1.63058396	      3.62079289	      6.21174746	      0.06319476	     10.03075386	     30.00929267	     -7.61400041	    -19.26252632	     -7.46251120	     -5.95749082	    -10.66570846	    -11.29023295	    -18.38952514	     73.28528646	     90.00000001	      0.00000000	      0.00000000	      5.55873452	    -26.47916385	     16.58956010	     89.64843339	     90.00000001	      0.00000000	      0.00000000
      2.15000000	     -0.14353649	      8.09145148	     16.97267913	      0.47537547	      0.89134093	      0.41966787	     20.73858428	    -18.58891009	    -23.62084090	     30.72045192	      1.22976522	      0.53617303	     12.33435437	      7.20940492	     -7.61147594	      1.26237643	      1.96377060	     -0.97591192	      3.94061416	      6.04191421	      0.06877669	     10.56105334	     30.25608876	     -7.61147594	    -19.32639716	     -7.09611731	     -6.29342306	    -10.24138282	    -11.29095335	    -18.16905018	     72.21723329	     90.00000001	      0.00000000	      0.00000000	      5.74194902	    -26.59498671	     17.10964170	     89.69246726	     90.00000001	      0.00000000	      0.00000000
      2.16000000	     -0.29474500	      8.19537150	     17.29790414	      0.47928351	      0.89143096	      0.42104007	     20.49624427	    -18.39843882	    -23.74718428	     30.34982830	      0.97333555	      0.52970443	     12.44253655	      7.36806403	     -7.61071934	      1.27690775	      2.04501426	     -0.77211854	      4.16464854	      5.82910189	      0.07268683	     10.64537680	     30.26759562	     -7.61071934	    -19.21264472	     -7.12732214	     -6.26377718	    -10.02952640	    -11.24449911	    -18.04238624	     71.87471272	     90.00000001	      0.00000000	      0.00000000	      6.00166578	    -26.43159687	     17.23950522	     89.81244434	     90.00000001	      0.00000000	      0.00000000
      2.17000000	     -0.26622403	      8.05537457	     17.83338887	      0.48327746	      0.89198031	      0.42223384	     19.87386100	    -18.03108242	    -24.26379526	     29.96214971	      0.84409012	      0.52293816	     12.73861398	      7.60647305	     -7.60909314	      1.31550155	      1.79247990	     -0.38357967	      4.64608045	      5.68814144	      0.08108940	     11.07888408	     30.23134022	     -7.60909314	    -19.17789767	     -6.80591977	     -6.49806310	     -9.53001467	    -11.22182893	    -17.85488516	     71.03237407	     90.00000001	      0.00000000	      0.00000000	      6.16789508	    -26.32148479	     17.58845170	     89.68563559	     90.00000001	      0.00000000	      0.00000000
      2.18000000	     -0.22108886	      7.91028699	     18.23192996	      0.48727288	      0.89255909	      0.42360994	     19.37341358	    -17.66352826	    -24.60513979	     29.85076435	      0.72109412	      0.52099412	     12.98740667	      7.66276800	     -7.60727217	      1.37431183	      1.50524119	     -0.09999138	      5.20758409	      5.60881948	      0.09088949	     11.43748608	     30.08097627	     -7.60727217	    -19.17125612	     -6.50837093	     -6.50645778	     -9.21256634	    -11.27878852	    -17.72180500	     70.51670458	     90.00000001	      0.00000000	      0.00000000	      6.35358393	    -26.05268208	     17.70431614	     89.66050204	     90.00000001	      0.00000000	      0.00000000
      2.19000000	     -0.21475365	      7.74440198	     18.57728289	      0.49122313	      0.89319649	      0.42504436	     18.93199304	    -17.32322144	    -24.77524697	     29.80339124	      0.75322068	      0.52016731	     13.28842228	      7.50659356	     -7.60556420	      1.53513537	      1.24568794	      0.10710860	      5.86712853	      5.50264569	      0.10240071	     11.76676944	     29.82152164	     -7.60556420	    -19.10796177	     -6.21750872	     -6.50972072	     -8.85434250	    -11.35379603	    -17.58253512	     69.95424216	     90.00000001	      0.00000000	      0.00000000	      6.49433010	    -25.74682561	     17.84971130	     89.54858822	     90.00000001	      0.00000000	      0.00000000
      2.20000000	     -0.22664788	      7.50764464	     18.89643269	      0.49510040	      0.89381090	      0.42655614	     18.52249837	    -16.93552394	    -24.85656320	     29.74419283	      0.88308969	      0.51913410	     13.52894571	      7.16857798	     -7.60355040	      1.83789519	      0.91187006	      0.27521747	      6.70882233	      5.43227750	      0.11709104	     12.16261505	     29.42077694	     -7.60355040	    -19.01257742	     -5.88014304	     -6.45403433	     -8.52330370	    -11.49180578	    -17.45815370	     69.42363902	     90.00000001	      0.00000000	      0.00000000	      6.61456167	    -25.40191539	     17.94743589	     89.46570304	     90.00000001	      0.00000000	      0.00000000
